<?xml version="1.0" standalone="no"?>
<!DOCTYPE svg PUBLIC "-//W3C//DTD SVG 20010904//EN"
 "http://www.w3.org/TR/2001/REC-SVG-20010904/DTD/svg10.dtd">
<svg version="1.0" xmlns="http://www.w3.org/2000/svg"
 width="384.000000pt" height="384.000000pt" viewBox="0 0 384.000000 384.000000"
 preserveAspectRatio="xMidYMid meet">
<metadata>
Created by potrace 1.14, written by Peter Selinger 2001-2017
</metadata>
<g transform="translate(0.000000,384.000000) scale(0.100000,-0.100000)"
fill="#000000" stroke="none">
<path d="M1333 3110 c-13 -5 -32 -24 -43 -42 -18 -29 -20 -51 -20 -181 l0
-149 34 -34 c25 -25 43 -34 68 -34 l33 0 1 -99 1 -98 -61 -7 c-77 -8 -155 -47
-207 -103 -60 -65 -81 -121 -87 -235 l-5 -98 -66 0 c-78 0 -108 -13 -131 -58
-15 -28 -17 -62 -16 -275 1 -217 3 -246 19 -271 25 -37 70 -54 140 -50 l57 3
1 -182 c1 -215 2 -227 36 -294 35 -70 98 -129 169 -158 l59 -25 615 3 615 2
57 28 c80 39 142 111 168 194 17 56 20 93 20 257 l0 192 38 17 c77 34 149 129
170 224 31 140 -46 300 -175 361 l-33 16 0 80 c0 90 -11 140 -42 204 -27 53
-95 117 -156 145 -46 21 -59 22 -529 25 -471 3 -483 3 -484 22 0 11 0 40 0 65
0 117 -1 115 27 115 27 0 60 15 82 37 23 23 29 64 27 201 -1 143 -11 171 -66
199 -28 15 -281 17 -316 3z m264 -113 c9 -15 10 -173 1 -196 -7 -19 -16 -21
-107 -21 -81 0 -100 3 -105 16 -11 28 -7 189 5 201 15 15 197 14 206 0z m750
-1081 c2 -2 5 -18 5 -35 1 -17 6 -31 12 -32 18 -1 89 -1 114 0 17 1 22 7 22
29 0 36 15 50 46 44 l24 -4 0 -143 0 -143 -62 -4 c-35 -1 -83 -1 -108 2 -40 4
-45 8 -45 30 0 33 -10 47 -32 45 -36 -2 -40 -13 -39 -110 1 -56 -3 -100 -9
-103 -5 -4 -38 -7 -72 -7 l-63 0 -1 37 c-4 219 -1 391 9 397 11 7 192 5 199
-3z m-774 -20 c41 -17 86 -62 104 -104 61 -145 -37 -297 -192 -296 -67 0 -105
16 -153 65 -58 59 -72 151 -37 227 52 110 167 155 278 108z m847 -357 c14 -25
-3 -58 -27 -54 -10 2 -23 4 -29 4 -12 1 -14 53 -2 61 17 13 49 7 58 -11z m148
-16 c3 -32 0 -35 -33 -35 -31 0 -35 3 -35 31 0 30 10 39 45 37 15 -1 21 -9 23
-33z m-214 -268 c7 -19 -40 -124 -66 -147 -12 -11 -42 -29 -66 -40 -38 -17
-68 -19 -300 -19 -296 0 -316 4 -381 77 -36 41 -62 105 -54 130 5 15 861 14
867 -1z"/>
<path d="M1453 2942 c-18 -11 -24 -66 -10 -86 15 -21 70 -24 92 -6 18 15 20
71 3 88 -13 13 -66 16 -85 4z"/>
</g>
</svg>
